<?xml version="1.0" encoding="utf-8"?>
<!-- Generator: Adobe Illustrator 23.0.1, SVG Export Plug-In . SVG Version: 6.00 Build 0)  -->
<svg version="1.1" id="Layer_1" xmlns="http://www.w3.org/2000/svg" xmlns:xlink="http://www.w3.org/1999/xlink" x="0px" y="0px"
	 viewBox="0 0 185 52" style="enable-background:new 0 0 185 52;" xml:space="preserve">
<style type="text/css">
	.st0{fill:#0CAAE1;}
	.st1{fill:#FFFFFF;}
	.st2{fill:#FFF200;}
</style>
<g>
	<g>
		<g id="sex_4_">
			<path class="st0" d="M13.88,36.24c-1.94,0-3.75-0.24-5.43-0.73c-1.68-0.49-3.1-1.06-4.27-1.71l-1.54,1.57h-1.9L0.44,23.88h1.93
				c0.43,1.09,0.99,2.24,1.66,3.46c0.67,1.21,1.45,2.3,2.33,3.25c0.91,1,1.93,1.82,3.06,2.45c1.13,0.63,2.44,0.94,3.95,0.94
				c2.03,0,3.59-0.5,4.67-1.49c1.08-0.99,1.62-2.24,1.62-3.75c0-1.24-0.46-2.28-1.38-3.13c-0.92-0.84-2.34-1.57-4.27-2.19
				c-1.25-0.4-2.41-0.78-3.46-1.12c-1.05-0.35-2.04-0.7-2.97-1.06c-2.14-0.85-3.72-2.07-4.76-3.65c-1.04-1.58-1.56-3.36-1.56-5.31
				c0-1.24,0.27-2.43,0.81-3.58C2.62,7.54,3.4,6.52,4.43,5.61c0.99-0.85,2.25-1.55,3.78-2.08c1.54-0.54,3.21-0.81,5.02-0.81
				c1.76,0,3.41,0.25,4.95,0.74c1.54,0.49,2.75,0.99,3.63,1.48l1.37-1.34h1.95l0.18,10.84h-1.93c-0.45-1.17-0.97-2.36-1.58-3.58
				c-0.6-1.22-1.24-2.23-1.91-3.04c-0.73-0.87-1.58-1.56-2.53-2.08c-0.96-0.52-2.08-0.77-3.36-0.77c-1.61,0-2.93,0.46-3.95,1.37
				C9.02,7.23,8.51,8.36,8.51,9.71c0,1.27,0.44,2.31,1.33,3.12c0.89,0.81,2.27,1.52,4.15,2.13c1.1,0.37,2.23,0.75,3.38,1.12
				c1.15,0.37,2.17,0.73,3.07,1.08c2.16,0.84,3.81,1.99,4.94,3.46c1.13,1.47,1.69,3.3,1.69,5.48c0,1.38-0.32,2.71-0.96,3.99
				c-0.64,1.29-1.51,2.35-2.6,3.21c-1.19,0.94-2.58,1.67-4.14,2.17C17.8,35.98,15.97,36.24,13.88,36.24z"/>
			<path class="st0" d="M58.03,11.69h-1.7c-0.43-1.2-1.18-2.42-2.24-3.66c-1.06-1.23-2.11-1.96-3.16-2.19
				c-0.45-0.1-1.07-0.17-1.87-0.19c-0.8-0.02-1.46-0.03-1.98-0.03h-4.61v12.25h3.27c0.82,0,1.57-0.1,2.24-0.29
				c0.67-0.19,1.28-0.57,1.84-1.12c0.34-0.34,0.69-0.95,1.04-1.81c0.35-0.87,0.58-1.62,0.68-2.26h1.7v13.26h-1.7
				c-0.09-0.63-0.32-1.41-0.68-2.36c-0.37-0.95-0.71-1.6-1.04-1.96c-0.49-0.54-1.07-0.91-1.75-1.11s-1.45-0.3-2.33-0.3h-3.27v9.16
				c0,0.96,0.07,1.71,0.21,2.27c0.14,0.56,0.41,0.99,0.79,1.29c0.37,0.28,0.88,0.47,1.53,0.56c0.65,0.09,1.53,0.13,2.65,0.13
				c0.52,0,1.15-0.01,1.88-0.02c0.73-0.01,1.37-0.06,1.93-0.13c0.63-0.07,1.21-0.19,1.76-0.34c0.54-0.15,0.95-0.37,1.22-0.65
				c0.72-0.73,1.52-1.85,2.42-3.35c0.9-1.5,1.49-2.62,1.77-3.37h1.63l-0.6,9.9H29.86v-1.75c0.42-0.03,0.99-0.09,1.7-0.18
				c0.72-0.09,1.22-0.19,1.52-0.31c0.57-0.24,0.95-0.54,1.14-0.91c0.19-0.37,0.29-0.83,0.29-1.4V8.4c0-0.54-0.08-0.98-0.25-1.33
				c-0.16-0.35-0.56-0.67-1.19-0.95c-0.39-0.18-0.93-0.34-1.63-0.49c-0.7-0.15-1.23-0.25-1.59-0.29V3.59h28.17V11.69z"/>
			<path class="st0" d="M98.08,35.36H78.71v-1.75c1.85-0.1,3.05-0.26,3.59-0.48c0.54-0.22,0.81-0.5,0.81-0.86
				c0-0.19-0.1-0.5-0.29-0.93c-0.19-0.43-0.46-0.91-0.81-1.47c-0.52-0.88-1.22-1.98-2.09-3.3c-0.87-1.32-1.78-2.68-2.72-4.09
				c-3.13,3.63-5.12,6.04-5.96,7.23c-0.84,1.19-1.27,1.99-1.27,2.37c0,0.21,0.03,0.38,0.1,0.53c0.07,0.14,0.24,0.28,0.53,0.41
				c0.21,0.12,0.57,0.23,1.07,0.34c0.51,0.1,1.11,0.19,1.81,0.25v1.75H61.13v-1.75c0.64-0.04,1.15-0.11,1.54-0.2
				c0.38-0.09,0.76-0.22,1.13-0.38c0.87-0.4,1.64-0.91,2.31-1.53c0.67-0.62,1.37-1.34,2.09-2.16c1.04-1.18,2.22-2.52,3.54-4.01
				c1.31-1.49,2.69-3.08,4.14-4.77c-1.37-2.07-2.74-4.09-4.12-6.05c-1.37-1.96-2.54-3.62-3.49-4.99c-0.48-0.69-1.07-1.37-1.78-2.06
				c-0.71-0.69-1.45-1.18-2.23-1.48c-0.39-0.16-0.82-0.3-1.3-0.41c-0.48-0.11-1.05-0.19-1.73-0.24V3.59h19.42v1.75
				c-1.51,0.06-2.62,0.19-3.35,0.4c-0.72,0.21-1.09,0.52-1.09,0.94c0,0.21,0.07,0.47,0.21,0.79c0.14,0.32,0.42,0.82,0.84,1.51
				c0.36,0.6,0.91,1.47,1.67,2.62c0.75,1.15,1.61,2.45,2.57,3.91c2.82-3.36,4.59-5.54,5.31-6.57c0.72-1.02,1.08-1.72,1.08-2.09
				c0-0.43-0.21-0.76-0.63-0.97c-0.42-0.22-1.39-0.4-2.93-0.55V3.59h12.38v1.75c-0.57,0.01-1.03,0.07-1.4,0.16
				c-0.37,0.09-0.79,0.23-1.27,0.43c-0.93,0.42-1.7,0.93-2.33,1.55c-0.63,0.61-1.31,1.33-2.06,2.15c-1.11,1.23-2.16,2.42-3.17,3.58
				c-1.01,1.16-2.24,2.58-3.71,4.25c1.81,2.71,3.35,4.99,4.64,6.82c1.28,1.83,2.5,3.56,3.65,5.17c0.45,0.69,1.03,1.38,1.74,2.07
				c0.71,0.69,1.44,1.19,2.21,1.49c0.36,0.13,0.77,0.26,1.23,0.38c0.46,0.12,1.07,0.2,1.84,0.25V35.36z"/>
		</g>
		<g id="ster_5_">
			<path class="st0" d="M176.61,14.23h7.94l-6.4,4.8l2.48,7.61l-6.37-4.69l-6.37,4.69l2.51-7.61l-6.45-4.8h7.92l2.4-7.42
				L176.61,14.23z"/>
		</g>
		<g id="jobs_4_">
			<path class="st1" d="M107.15,35.53h-4.62c-0.66,0-1.14-0.1-1.45-0.29c-0.31-0.2-0.46-0.55-0.46-1.07c0-0.27,0.04-0.56,0.12-0.87
				l0.55-2.42h0.55c0.08,0.74,0.52,1.11,1.32,1.11h1.79c0.57,0,0.98-0.11,1.22-0.32c0.24-0.22,0.44-0.67,0.6-1.35l2.71-11.54
				c0.04-0.14,0.06-0.32,0.06-0.53c0-0.43-0.31-0.65-0.92-0.65h-1.14c-0.78,0-1.17-0.26-1.17-0.77c0-0.16,0.03-0.37,0.09-0.62
				l0.46-2h6.44c0.72,0,1.08,0.35,1.08,1.05c0,0.21-0.03,0.43-0.09,0.68l-3.88,16.53c-0.25,1.11-0.62,1.9-1.11,2.36
				C108.82,35.3,108.1,35.53,107.15,35.53z"/>
			<path class="st1" d="M113.71,24.75c0.9-3.92,1.99-6.63,3.26-8.13c1.52-1.79,3.82-2.68,6.9-2.68c4.52,0,6.78,2.11,6.78,6.31
				c0,0.62-0.05,1.28-0.14,2c-0.09,0.72-0.24,1.52-0.45,2.4c-0.97,4.15-2.1,6.98-3.42,8.5c-1.48,1.7-3.75,2.56-6.81,2.56
				c-2.36,0-4.09-0.49-5.17-1.48c-1.09-0.99-1.63-2.51-1.63-4.56C113.03,28.37,113.26,26.73,113.71,24.75z M118.12,24.66
				c-0.49,2.01-0.74,3.57-0.74,4.68c0,1.01,0.24,1.74,0.71,2.19c0.47,0.45,1.24,0.68,2.31,0.68c1.42,0,2.48-0.53,3.19-1.6
				c0.71-1.07,1.43-3.14,2.17-6.22c0.35-1.5,0.52-2.71,0.52-3.63c0-2.2-1.01-3.3-3.02-3.3c-1.38,0-2.43,0.52-3.16,1.56
				C119.37,20.05,118.71,21.93,118.12,24.66z"/>
			<path class="st1" d="M138.48,35.53h-7.7c-0.8,0-1.2-0.43-1.2-1.3c0-0.27,0.02-0.47,0.06-0.62l4.1-17.4
				c0.02-0.1,0.04-0.21,0.05-0.32c0.01-0.11,0.02-0.19,0.02-0.23c0-0.51-0.25-0.8-0.74-0.86l0.12-0.58h8.16c1.75,0,3.1,0.4,4.05,1.2
				c0.96,0.8,1.43,1.87,1.43,3.2c0,0.35-0.01,0.6-0.03,0.74c-0.02,0.14-0.06,0.36-0.12,0.65c-0.25,1.09-0.59,1.92-1.02,2.49
				c-0.53,0.7-1.3,1.13-2.31,1.29c0.84,0.37,1.47,0.83,1.88,1.39c0.51,0.68,0.77,1.54,0.77,2.59c0,0.49-0.08,1.1-0.25,1.82
				c-0.49,2.08-1.31,3.59-2.45,4.52C142.16,35.07,140.55,35.53,138.48,35.53z M135.7,25.62l-1.54,6.53h3.48
				c1.11,0,1.96-0.24,2.54-0.71c0.59-0.47,1.02-1.28,1.31-2.41c0.08-0.33,0.12-0.67,0.12-1.02c0-0.78-0.25-1.38-0.75-1.78
				c-0.5-0.4-1.19-0.6-2.05-0.6H135.7z M137.52,17.61l-1.05,4.62h3.11c0.9,0,1.59-0.16,2.05-0.46c0.46-0.31,0.8-0.9,1-1.77
				l0.12-0.84c0-1.03-0.71-1.55-2.13-1.55H137.52z"/>
			<path class="st1" d="M155.29,14.22h6.53l-0.4,1.76c-0.14,0.62-0.35,1.04-0.63,1.28c-0.28,0.24-0.73,0.35-1.37,0.35h-3.53
				c-0.8,0-1.4,0.13-1.8,0.4c-0.4,0.27-0.68,0.74-0.84,1.42l-0.09,0.71c0,0.35,0.1,0.66,0.29,0.93c0.19,0.27,0.54,0.5,1.03,0.71
				l2.94,1.3c1.04,0.45,1.8,0.98,2.27,1.57c0.55,0.7,0.83,1.6,0.83,2.72c0,0.47-0.02,0.82-0.05,1.05c-0.03,0.23-0.1,0.56-0.2,0.99
				c-0.49,2.16-1.24,3.72-2.25,4.69c-1.01,0.97-2.47,1.45-4.4,1.45h-5.7c-0.64,0-1.11-0.1-1.43-0.29c-0.32-0.2-0.48-0.54-0.48-1.04
				c0-0.29,0.04-0.59,0.12-0.9l0.55-2.42h0.55c0.08,0.74,0.52,1.11,1.32,1.11h3.94c1.17,0,2.02-0.24,2.56-0.71
				c0.41-0.37,0.73-1.04,0.95-2.01c0.08-0.33,0.12-0.66,0.12-0.99c0-0.45-0.14-0.84-0.42-1.16c-0.28-0.32-0.74-0.62-1.4-0.91
				l-2.4-1.02c-0.94-0.41-1.67-0.97-2.19-1.67c-0.51-0.7-0.77-1.57-0.77-2.62c0-0.51,0.08-1.15,0.25-1.91
				c0.41-1.73,1.09-2.96,2.05-3.69C152.23,14.59,153.57,14.22,155.29,14.22z"/>
		</g>
		<g id="nl_4_">
			<path class="st1" d="M163.44,29.48h1.35l2.59,4.16h0.02v-4.16h1.28v6.2h-1.36l-2.58-4.15h-0.02v4.15h-1.28V29.48z"/>
			<path class="st1" d="M169.76,29.48h1.36v5.05h3.02v1.15h-4.39V29.48z"/>
		</g>
		<circle id="dot_4_" class="st1" cx="160.95" cy="34.5" r="1.22"/>
	</g>
	<g>
		<path class="st2" d="M6.96,41.02c0.54,0.19,0.93,0.54,1.18,1.04c0.2,0.41,0.3,0.85,0.3,1.33c0,0.48-0.04,0.93-0.13,1.36
			c-0.23,1.09-0.65,2.02-1.25,2.78c-0.81,1.02-1.84,1.53-3.08,1.53H0.44l1.75-8.22h3.54C6.24,40.85,6.65,40.91,6.96,41.02z
			 M3.55,42.27l-1.14,5.36H4c0.81,0,1.46-0.4,1.95-1.2c0.27-0.44,0.46-0.96,0.59-1.57c0.18-0.84,0.18-1.48,0.02-1.93
			s-0.64-0.67-1.42-0.67H3.55z"/>
		<path class="st2" d="M16.2,42.3h-4.35l-0.37,1.74h3.99l-0.31,1.43h-3.99l-0.45,2.11h4.55l-0.31,1.48H8.74l1.75-8.22h6.03
			L16.2,42.3z"/>
		<path class="st2" d="M25.56,42.3h-4.35v1.74h3.99v1.43h-3.99v2.11h4.55v1.48h-6.23v-8.22h6.03V42.3z"/>
		<path class="st2" d="M32.37,41.05c0.3,0.13,0.56,0.32,0.77,0.57c0.17,0.21,0.31,0.44,0.41,0.69c0.1,0.25,0.15,0.54,0.15,0.86
			c0,0.39-0.1,0.77-0.3,1.15c-0.2,0.38-0.52,0.64-0.98,0.8c0.38,0.15,0.65,0.37,0.81,0.65c0.16,0.28,0.24,0.71,0.24,1.29v0.55
			c0,0.38,0.02,0.63,0.05,0.76c0.05,0.21,0.15,0.37,0.32,0.47v0.21h-1.9c-0.05-0.18-0.09-0.33-0.11-0.44
			c-0.05-0.23-0.07-0.47-0.07-0.71l-0.01-0.76c-0.01-0.52-0.1-0.87-0.27-1.05s-0.5-0.26-0.98-0.26h-1.68v3.22h-1.68v-8.22h3.93
			C31.63,40.85,32.06,40.92,32.37,41.05z M28.82,42.27v2.21h1.85c0.37,0,0.64-0.04,0.83-0.13c0.33-0.16,0.49-0.46,0.49-0.93
			c0-0.5-0.16-0.83-0.47-1c-0.18-0.1-0.44-0.14-0.79-0.14H28.82z"/>
		<path class="st2" d="M41.67,48.33c-0.62,0.64-1.52,0.96-2.69,0.96c-1.18,0-2.07-0.32-2.69-0.96c-0.83-0.78-1.25-1.91-1.25-3.39
			c0-1.51,0.42-2.63,1.25-3.39c0.62-0.64,1.52-0.96,2.69-0.96c1.17,0,2.07,0.32,2.69,0.96c0.83,0.76,1.24,1.88,1.24,3.39
			C42.92,46.41,42.5,47.54,41.67,48.33z M40.6,47.08c0.4-0.5,0.6-1.22,0.6-2.14c0-0.92-0.2-1.63-0.6-2.14
			c-0.4-0.5-0.94-0.76-1.62-0.76c-0.68,0-1.22,0.25-1.63,0.75c-0.41,0.5-0.61,1.22-0.61,2.14c0,0.93,0.2,1.64,0.61,2.14
			c0.4,0.5,0.95,0.75,1.63,0.75C39.66,47.83,40.2,47.58,40.6,47.08z"/>
		<path class="st2" d="M50.2,40.84v1.46h-2.46v6.76h-1.73V42.3h-2.47v-1.46H50.2z"/>
		<path class="st2" d="M52.77,49.06h-1.71v-8.22h1.71V49.06z"/>
		<path class="st2" d="M55.61,46.52c0.05,0.38,0.16,0.66,0.31,0.84c0.28,0.34,0.77,0.51,1.46,0.51c0.41,0,0.75-0.04,1.01-0.13
			c0.49-0.17,0.73-0.49,0.73-0.95c0-0.27-0.12-0.48-0.36-0.63c-0.24-0.14-0.62-0.27-1.14-0.38l-0.89-0.19
			c-0.87-0.19-1.48-0.4-1.8-0.63c-0.55-0.38-0.83-0.97-0.83-1.78c0-0.74,0.27-1.35,0.81-1.83c0.54-0.49,1.34-0.73,2.39-0.73
			c0.88,0,1.62,0.23,2.24,0.69c0.62,0.46,0.94,1.13,0.97,2h-1.65c-0.03-0.49-0.25-0.85-0.66-1.05c-0.27-0.14-0.62-0.21-1.02-0.21
			c-0.45,0-0.82,0.09-1.09,0.27c-0.27,0.18-0.41,0.43-0.41,0.75c0,0.29,0.13,0.51,0.4,0.66c0.17,0.1,0.54,0.21,1.09,0.34l1.44,0.34
			c0.63,0.15,1.11,0.35,1.42,0.6c0.49,0.39,0.73,0.95,0.73,1.68c0,0.75-0.29,1.38-0.87,1.87c-0.58,0.5-1.4,0.74-2.46,0.74
			c-1.08,0-1.93-0.24-2.55-0.73c-0.62-0.49-0.93-1.16-0.93-2.02H55.61z"/>
		<path class="st2" d="M62.78,41.7c0.66-0.68,1.5-1.02,2.53-1.02c1.37,0,2.37,0.45,3,1.36c0.35,0.51,0.54,1.02,0.56,1.53h-1.72
			c-0.11-0.39-0.25-0.69-0.42-0.89c-0.31-0.36-0.76-0.54-1.36-0.54c-0.61,0-1.09,0.25-1.45,0.76c-0.35,0.5-0.53,1.22-0.53,2.14
			c0,0.92,0.19,1.61,0.56,2.07c0.37,0.46,0.85,0.69,1.42,0.69c0.59,0,1.04-0.2,1.35-0.59c0.17-0.21,0.31-0.53,0.43-0.95h1.71
			c-0.15,0.9-0.52,1.62-1.13,2.19c-0.6,0.56-1.38,0.84-2.33,0.84c-1.17,0-2.09-0.38-2.76-1.14c-0.67-0.76-1-1.81-1-3.13
			C61.64,43.58,62.02,42.48,62.78,41.7z"/>
		<path class="st2" d="M70.23,49.06v-8.22h1.71v3.13h3.2v-3.13h1.71v8.22h-1.71v-3.67h-3.2v3.67H70.23z"/>
		<path class="st2" d="M84.57,42.3h-4.35v1.74h3.99v1.43h-3.99v2.11h4.55v1.48h-6.23v-8.22h6.03V42.3z"/>
		<path class="st2" d="M94.73,40.84h2.47v8.22h-1.6V43.5c0-0.16,0-0.38,0.01-0.67c0-0.29,0.01-0.51,0.01-0.67l-1.56,6.9h-1.67
			l-1.55-6.9c0,0.16,0,0.38,0.01,0.67c0,0.29,0.01,0.51,0.01,0.67v5.56h-1.6v-8.22h2.5l1.5,6.46L94.73,40.84z"/>
		<path class="st2" d="M101.14,40.84h1.94l2.91,8.22h-1.86l-0.54-1.69h-3.03L100,49.06h-1.8L101.14,40.84z M101.03,45.95h2.11
			l-1.04-3.23L101.03,45.95z"/>
		<path class="st2" d="M112.31,41.05c0.3,0.13,0.56,0.32,0.77,0.57c0.17,0.21,0.31,0.44,0.41,0.69c0.1,0.25,0.15,0.54,0.15,0.86
			c0,0.39-0.1,0.77-0.3,1.15c-0.2,0.38-0.52,0.64-0.98,0.8c0.38,0.15,0.65,0.37,0.81,0.65c0.16,0.28,0.24,0.71,0.24,1.29v0.55
			c0,0.38,0.01,0.63,0.04,0.76c0.05,0.21,0.15,0.37,0.32,0.47v0.21h-1.9c-0.05-0.18-0.09-0.33-0.11-0.44
			c-0.04-0.23-0.07-0.47-0.07-0.71l-0.01-0.76c-0.01-0.52-0.1-0.87-0.27-1.05c-0.17-0.18-0.5-0.26-0.98-0.26h-1.68v3.22h-1.68v-8.22
			h3.93C111.57,40.85,112,40.92,112.31,41.05z M108.76,42.27v2.21h1.85c0.37,0,0.64-0.04,0.83-0.13c0.32-0.16,0.49-0.46,0.49-0.93
			c0-0.5-0.16-0.83-0.47-1c-0.18-0.1-0.44-0.14-0.79-0.14H108.76z"/>
		<path class="st2" d="M115.31,40.84H117v3.39l3.18-3.39h2.22l-3.37,3.38l3.55,4.84h-2.21l-2.53-3.59L117,46.31v2.75h-1.69V40.84z"
			/>
		<path class="st2" d="M129.5,40.84v1.46h-2.46v6.76h-1.73V42.3h-2.47v-1.46H129.5z"/>
		<path class="st2" d="M136.03,45.5c-0.48,0.4-1.17,0.6-2.06,0.6h-1.71v2.96h-1.71v-8.22h3.53c0.81,0,1.46,0.21,1.95,0.64
			c0.48,0.42,0.73,1.08,0.73,1.97C136.75,44.41,136.51,45.1,136.03,45.5z M134.72,42.54c-0.22-0.18-0.52-0.27-0.91-0.27h-1.55v2.42
			h1.55c0.39,0,0.7-0.1,0.91-0.3c0.22-0.2,0.33-0.51,0.33-0.94C135.04,43.03,134.93,42.72,134.72,42.54z"/>
		<path class="st2" d="M138.12,40.84h1.72v6.74h4.1v1.48h-5.82V40.84z"/>
		<path class="st2" d="M147.45,40.84h1.94l2.91,8.22h-1.86l-0.54-1.69h-3.03l-0.56,1.69h-1.8L147.45,40.84z M147.34,45.95h2.11
			l-1.04-3.23L147.34,45.95z"/>
		<path class="st2" d="M155.7,40.84h1.94l2.91,8.22h-1.86l-0.54-1.69h-3.03l-0.56,1.69h-1.8L155.7,40.84z M155.58,45.95h2.11
			l-1.04-3.23L155.58,45.95z"/>
		<path class="st2" d="M166.72,40.84v1.46h-2.46v6.76h-1.73V42.3h-2.47v-1.46H166.72z"/>
		<path class="st2" d="M168.97,46.52c0.05,0.38,0.16,0.66,0.31,0.84c0.28,0.34,0.77,0.51,1.46,0.51c0.41,0,0.75-0.04,1.01-0.13
			c0.49-0.17,0.73-0.49,0.73-0.95c0-0.27-0.12-0.48-0.36-0.63c-0.24-0.14-0.62-0.27-1.14-0.38l-0.89-0.19
			c-0.88-0.19-1.48-0.4-1.8-0.63c-0.55-0.38-0.83-0.97-0.83-1.78c0-0.74,0.27-1.35,0.81-1.83c0.54-0.49,1.34-0.73,2.39-0.73
			c0.88,0,1.63,0.23,2.24,0.69c0.62,0.46,0.94,1.13,0.97,2h-1.65c-0.03-0.49-0.25-0.85-0.66-1.05c-0.28-0.14-0.62-0.21-1.02-0.21
			c-0.45,0-0.82,0.09-1.09,0.27c-0.27,0.18-0.41,0.43-0.41,0.75c0,0.29,0.13,0.51,0.4,0.66c0.17,0.1,0.54,0.21,1.09,0.34l1.44,0.34
			c0.63,0.15,1.11,0.35,1.42,0.6c0.49,0.39,0.73,0.95,0.73,1.68c0,0.75-0.29,1.38-0.87,1.87c-0.58,0.5-1.4,0.74-2.46,0.74
			c-1.08,0-1.93-0.24-2.55-0.73c-0.62-0.49-0.93-1.16-0.93-2.02H168.97z"/>
	</g>
</g>
</svg>
